<svg xmlns="http://www.w3.org/2000/svg" viewBox="497.8 102.8 306.7 226.9" width="306.7" height="226.9"><defs><linearGradient id="sg" x1="0" x2="1"><stop offset="0" stop-color="#002f65"/><stop offset=".6" stop-color="#00a6ca"/><stop offset="1" stop-color="#4fd1e8"/></linearGradient><linearGradient id="xg" x1="0" y1="1" x2="1" y2="0"><stop offset="0" stop-color="#002f65"/><stop offset=".55" stop-color="#00a6ca"/><stop offset="1" stop-color="#4fd1e8"/></linearGradient></defs><g id="logo"><circle cx="780.00" cy="215.00" r="8.07" fill="#002f65"/><circle cx="776.22" cy="236.06" r="8.29" fill="#003268"/><circle cx="765.11" cy="255.90" r="9.98" fill="#003b70"/><circle cx="747.31" cy="273.35" r="11.15" fill="#004a7c"/><circle cx="723.85" cy="287.42" r="12.58" fill="#005e8d"/><circle cx="696.10" cy="297.28" r="11.46" fill="#0075a0"/><circle cx="665.67" cy="302.36" r="10.93" fill="#008eb6"/><circle cx="634.33" cy="302.36" r="4.07" fill="#02a7cb"/><circle cx="603.90" cy="297.28" r="4.28" fill="#16b2d2"/><circle cx="576.15" cy="287.42" r="4.54" fill="#29bcda"/><circle cx="552.69" cy="273.35" r="4.82" fill="#39c5e0"/><circle cx="534.89" cy="255.90" r="5.12" fill="#45cce4"/><circle cx="523.78" cy="236.06" r="5.43" fill="#4cd0e7"/><circle cx="520.00" cy="215.00" r="5.77" fill="#4fd1e8"/><circle cx="523.78" cy="193.94" r="6.11" fill="#4cd0e7"/><circle cx="534.89" cy="174.10" r="6.47" fill="#45cce4"/><circle cx="552.69" cy="156.65" r="6.84" fill="#39c5e0"/><circle cx="576.15" cy="142.58" r="7.22" fill="#29bcda"/><circle cx="603.90" cy="132.72" r="7.61" fill="#16b2d2"/><circle cx="634.33" cy="127.64" r="8.00" fill="#02a7cb"/><circle cx="665.67" cy="127.64" r="8.41" fill="#008eb6"/><circle cx="696.10" cy="132.72" r="8.82" fill="#0075a0"/><circle cx="723.85" cy="142.58" r="9.24" fill="#005e8d"/><circle cx="747.31" cy="156.65" r="9.66" fill="#004a7c"/><circle cx="765.11" cy="174.10" r="9.74" fill="#003b70"/><circle cx="776.22" cy="193.94" r="9.40" fill="#003268"/><circle cx="744.47" cy="227.30" r="8.62" fill="#003167"/><circle cx="734.23" cy="246.46" r="9.30" fill="#003c70"/><circle cx="715.75" cy="262.54" r="9.77" fill="#005182"/><circle cx="690.83" cy="273.96" r="8.84" fill="#006d9a"/><circle cx="661.91" cy="279.62" r="8.52" fill="#008eb5"/><circle cx="631.83" cy="278.95" r="3.22" fill="#08aacd"/><circle cx="603.53" cy="272.02" r="3.45" fill="#22b8d7"/><circle cx="579.77" cy="259.51" r="3.73" fill="#37c4df"/><circle cx="562.89" cy="242.64" r="4.04" fill="#47cce5"/><circle cx="554.54" cy="223.06" r="4.36" fill="#4ed1e8"/><circle cx="555.53" cy="202.70" r="4.71" fill="#4dd0e7"/><circle cx="565.77" cy="183.54" r="5.07" fill="#44cbe4"/><circle cx="584.25" cy="167.46" r="5.45" fill="#33c2dd"/><circle cx="609.17" cy="156.04" r="5.84" fill="#1cb5d5"/><circle cx="638.09" cy="150.38" r="6.24" fill="#02a7cb"/><circle cx="668.17" cy="151.05" r="6.65" fill="#0087af"/><circle cx="696.47" cy="157.98" r="7.07" fill="#006794"/><circle cx="720.23" cy="170.49" r="7.50" fill="#004c7e"/><circle cx="737.11" cy="187.36" r="7.94" fill="#00396e"/><circle cx="745.46" cy="206.94" r="8.18" fill="#003066"/><circle cx="710.36" cy="231.32" r="6.78" fill="#00376c"/><circle cx="693.92" cy="247.43" r="7.28" fill="#005283"/><circle cx="668.79" cy="257.12" r="7.78" fill="#007ca6"/><circle cx="639.93" cy="258.47" r="2.38" fill="#05a9cc"/><circle cx="613.06" cy="251.21" r="2.63" fill="#29bcda"/><circle cx="593.51" cy="236.77" r="2.94" fill="#44cbe4"/><circle cx="585.15" cy="218.02" r="3.29" fill="#4fd1e8"/><circle cx="589.64" cy="198.68" r="3.66" fill="#49cee6"/><circle cx="606.08" cy="182.57" r="4.06" fill="#33c2dd"/><circle cx="631.21" cy="172.88" r="4.48" fill="#11afd0"/><circle cx="660.07" cy="171.53" r="4.91" fill="#008ab3"/><circle cx="686.94" cy="178.79" r="5.36" fill="#005e8d"/><circle cx="706.49" cy="193.23" r="5.82" fill="#003d71"/><circle cx="714.85" cy="211.98" r="6.29" fill="#002f65"/><circle cx="680.65" cy="228.30" r="4.82" fill="#004074"/><circle cx="657.78" cy="239.07" r="5.43" fill="#0084ad"/><circle cx="630.36" cy="235.74" r="1.80" fill="#27bbd9"/><circle cx="614.44" cy="220.27" r="2.19" fill="#4dd0e7"/><circle cx="619.35" cy="201.70" r="2.64" fill="#41c9e3"/><circle cx="642.22" cy="190.93" r="3.14" fill="#0aabce"/><circle cx="669.64" cy="194.26" r="3.67" fill="#00618f"/><circle cx="685.56" cy="209.73" r="4.23" fill="#003167"/></g></svg>
