<svg class="who-illu it-landschaft reveal" viewBox="0 0 600 460" width="600" height="460" aria-hidden="true" focusable="false"><defs><pattern id="il-grid" width="28" height="28" patternUnits="userSpaceOnUse" x="6" y="6"><circle cx="14" cy="14" r="1.2" fill="#002f65" fill-opacity=".09"/></pattern></defs><rect width="600" height="460" fill="url(#il-grid)"/><circle cx="300" cy="230" r="120" fill="none" stroke="#00799a" stroke-opacity="0.5" stroke-width="1.5" stroke-dasharray="2 7" stroke-linecap="round"/><circle cx="300" cy="230" r="190" fill="none" stroke="#00799a" stroke-opacity="0.35" stroke-width="1.5" stroke-dasharray="1 9" stroke-linecap="round"/><path d="M300.0 49.5 Q300 230 505.7 139.8" fill="none" stroke="#d9e2ec" stroke-width="1.2"/><path d="M505.7 139.8 Q300 230 505.7 320.2" fill="none" stroke="#d9e2ec" stroke-width="1.2"/><path d="M505.7 320.2 Q300 230 300.0 410.5" fill="none" stroke="#d9e2ec" stroke-width="1.2"/><path d="M300.0 410.5 Q300 230 94.3 320.2" fill="none" stroke="#d9e2ec" stroke-width="1.2"/><path d="M94.3 320.2 Q300 230 94.3 139.8" fill="none" stroke="#d9e2ec" stroke-width="1.2"/><path d="M94.3 139.8 Q300 230 300.0 49.5" fill="none" stroke="#d9e2ec" stroke-width="1.2"/><path d="M300.0 49.5 L300 230" stroke="#00799a" stroke-opacity=".3" stroke-width="1.5"/><path d="M505.7 139.8 L300 230" stroke="#00799a" stroke-opacity=".3" stroke-width="1.5"/><path d="M505.7 320.2 L300 230" stroke="#00799a" stroke-opacity=".3" stroke-width="1.5"/><path d="M300.0 410.5 L300 230" stroke="#00799a" stroke-opacity=".3" stroke-width="1.5"/><path d="M94.3 320.2 L300 230" stroke="#00799a" stroke-opacity=".3" stroke-width="1.5"/><path d="M94.3 139.8 L300 230" stroke="#00799a" stroke-opacity=".3" stroke-width="1.5"/><path class="il-flow il-flow1" d="M300.0 49.5 L300 230"/><path class="il-flow il-flow2" d="M505.7 139.8 L300 230"/><path class="il-flow il-flow3" d="M505.7 320.2 L300 230"/><path class="il-flow il-flow4" d="M300.0 410.5 L300 230"/><path class="il-flow il-flow5" d="M94.3 320.2 L300 230"/><path class="il-flow il-flow6" d="M94.3 139.8 L300 230"/><circle cx="190.8" cy="392.6" r="1.8" fill="#00a6ca" fill-opacity="0.8"/><circle cx="520.3" cy="340.3" r="2.5" fill="#00a6ca" fill-opacity="0.35"/><circle cx="80.6" cy="302.4" r="1.8" fill="#002f65" fill-opacity="0.55"/><circle cx="546.5" cy="301.6" r="2.5" fill="#002f65" fill-opacity="0.8"/><circle cx="92.3" cy="141.0" r="4.5" fill="#00a6ca" fill-opacity="0.35"/><circle cx="567.1" cy="290.0" r="3.5" fill="#4fd1e8" fill-opacity="0.35"/><circle cx="43.8" cy="180.1" r="2.5" fill="#00a6ca" fill-opacity="0.8"/><circle cx="78.4" cy="150.7" r="1.8" fill="#002f65" fill-opacity="0.8"/><circle cx="521.1" cy="298.6" r="2.5" fill="#4fd1e8" fill-opacity="0.8"/><circle cx="30.5" cy="189.4" r="4.5" fill="#002f65" fill-opacity="0.55"/><circle cx="139.5" cy="371.7" r="2.5" fill="#002f65" fill-opacity="0.35"/><circle cx="518.8" cy="322.2" r="4.5" fill="#4fd1e8" fill-opacity="0.8"/><circle cx="47.0" cy="292.8" r="1.8" fill="#00a6ca" fill-opacity="0.8"/><circle cx="61.5" cy="330.5" r="2.5" fill="#4fd1e8" fill-opacity="0.55"/><circle cx="561.4" cy="279.0" r="3.5" fill="#4fd1e8" fill-opacity="0.8"/><circle cx="146.3" cy="387.3" r="4.5" fill="#00a6ca" fill-opacity="0.35"/><circle cx="544.4" cy="164.0" r="1.8" fill="#00a6ca" fill-opacity="0.8"/><circle cx="219.4" cy="39.0" r="4.5" fill="#4fd1e8" fill-opacity="0.8"/><circle cx="96.9" cy="362.2" r="1.8" fill="#4fd1e8" fill-opacity="0.55"/><circle cx="419.3" cy="387.2" r="1.8" fill="#00a6ca" fill-opacity="0.55"/><circle cx="471.0" cy="364.7" r="4.5" fill="#4fd1e8" fill-opacity="0.35"/><circle cx="428.6" cy="395.3" r="3.5" fill="#00a6ca" fill-opacity="0.55"/><circle cx="464.3" cy="89.3" r="4.5" fill="#4fd1e8" fill-opacity="0.8"/><circle cx="512.0" cy="89.2" r="2.5" fill="#00a6ca" fill-opacity="0.35"/><circle cx="456.4" cy="393.2" r="1.8" fill="#4fd1e8" fill-opacity="0.8"/><circle cx="403.3" cy="400.1" r="2.5" fill="#4fd1e8" fill-opacity="0.8"/><g transform="translate(300.0 49.5)"><circle r="34" fill="#00a6ca" fill-opacity=".12"/><circle r="26" fill="#fff" stroke="#d9e2ec" stroke-width="1.5"/><g fill="none" stroke="#002f65" stroke-width="1.8" stroke-linecap="round" stroke-linejoin="round"><path d="M-11 6h22a7 7 0 0 0 0-14 10 10 0 0 0-19-2 7 7 0 0 0-3 16z"/></g></g><g transform="translate(505.7 139.8)"><circle r="34" fill="#00a6ca" fill-opacity=".12"/><circle r="26" fill="#fff" stroke="#d9e2ec" stroke-width="1.5"/><g fill="none" stroke="#002f65" stroke-width="1.8" stroke-linecap="round" stroke-linejoin="round"><rect x="-11" y="-11" width="22" height="9" rx="2"/><rect x="-11" y="2" width="22" height="9" rx="2"/><path d="M-6 -6.5h1M-6 6.5h1"/></g></g><g transform="translate(505.7 320.2)"><circle r="34" fill="#00a6ca" fill-opacity=".12"/><circle r="26" fill="#fff" stroke="#d9e2ec" stroke-width="1.5"/><g fill="none" stroke="#002f65" stroke-width="1.8" stroke-linecap="round" stroke-linejoin="round"><path d="M0-12l10 4v7c0 6-4 10-10 13-6-3-10-7-10-13v-7z"/><path d="M-4 0l3 3 5-6"/></g></g><g transform="translate(300.0 410.5)"><circle r="34" fill="#00a6ca" fill-opacity=".12"/><circle r="26" fill="#fff" stroke="#d9e2ec" stroke-width="1.5"/><g fill="none" stroke="#002f65" stroke-width="1.8" stroke-linecap="round" stroke-linejoin="round"><rect x="-10" y="-9" width="20" height="13" rx="1.5"/><path d="M-14 8h28"/></g></g><g transform="translate(94.3 320.2)"><circle r="34" fill="#00a6ca" fill-opacity=".12"/><circle r="26" fill="#fff" stroke="#d9e2ec" stroke-width="1.5"/><g fill="none" stroke="#002f65" stroke-width="1.8" stroke-linecap="round" stroke-linejoin="round"><path d="M-12-3a17 17 0 0 1 24 0M-8 2a11 11 0 0 1 16 0M-4 7a5 5 0 0 1 8 0"/><circle cx="0" cy="11" r="1"/></g></g><g transform="translate(94.3 139.8)"><circle r="34" fill="#00a6ca" fill-opacity=".12"/><circle r="26" fill="#fff" stroke="#d9e2ec" stroke-width="1.5"/><g fill="none" stroke="#002f65" stroke-width="1.8" stroke-linecap="round" stroke-linejoin="round"><rect x="-9" y="-12" width="18" height="24" rx="1"/><path d="M-4-7h2M2-7h2M-4-2h2M2-2h2M-4 3h2M2 3h2M-2 12v-4h4v4"/></g></g><circle class="il-halo" cx="300" cy="230" r="62" fill="#00a6ca" fill-opacity=".14"/><circle cx="300" cy="230" r="46" fill="#002f65"/><g transform="translate(300 230)" fill="none" stroke="#fff" stroke-width="2.2" stroke-linecap="round" stroke-linejoin="round"><circle r="7" cx="0" cy="-6"/><path d="M-13 15c1-8 6-12 13-12s12 4 13 12"/></g><circle cx="333" cy="197" r="9" fill="#4fd1e8" stroke="#fff" stroke-width="3"/></svg>
